<?xml version="1.0" encoding="utf-8"?>
<!-- Generator: Adobe Illustrator 27.6.1, SVG Export Plug-In . SVG Version: 6.00 Build 0)  -->
<svg version="1.1" id="Layer_1" xmlns="http://www.w3.org/2000/svg" xmlns:xlink="http://www.w3.org/1999/xlink" x="0px" y="0px"
	 viewBox="0 0 576 512" style="enable-background:new 0 0 576 512;" xml:space="preserve">
<style type="text/css">
	.st0{fill:#F6F6F6;}
</style>
<path class="st0" d="M400,96v0.7c-5.3-0.4-10.6-0.7-16-0.7H256c-16.5,0-32.5,2.1-47.8,6c-0.1-2-0.2-4-0.2-6c0-53,43-96,96-96
	S400,43,400,96z M384,128c3.5,0,7,0.1,10.4,0.3c4.2,0.3,8.4,0.7,12.6,1.3c17.6-20.5,43.8-33.6,73-33.6h11.5c10.4,0,18,9.8,15.5,19.9
	l-13.8,55.2c15.8,14.8,28.7,32.8,37.5,52.9H544c17.7,0,32,14.3,32,32v96c0,17.7-14.3,32-32,32h-32c-9.1,12.1-19.9,22.9-32,32v64
	c0,17.7-14.3,32-32,32h-32c-17.7,0-32-14.3-32-32v-32H256v32c0,17.7-14.3,32-32,32h-32c-17.7,0-32-14.3-32-32v-64
	c-34.9-26.2-58.7-66.3-63.2-112H68c-37.6,0-68-30.4-68-68s30.4-68,68-68h4c13.3,0,24,10.7,24,24s-10.7,24-24,24h-4c-11,0-20,9-20,20
	s9,20,20,20h31.2c12.1-59.8,57.7-107.5,116.3-122.8c12.9-3.4,26.5-5.2,40.5-5.2H384z M448,264c0-13.3-10.7-24-24-24s-24,10.7-24,24
	c0,13.3,10.7,24,24,24S448,277.3,448,264z"/>
</svg>
