<?xml version="1.0" encoding="utf-8"?>
<!-- Generator: Adobe Illustrator 27.6.1, SVG Export Plug-In . SVG Version: 6.00 Build 0)  -->
<svg version="1.1" id="Layer_1" xmlns="http://www.w3.org/2000/svg" xmlns:xlink="http://www.w3.org/1999/xlink" x="0px" y="0px"
	 viewBox="0 0 512 512" style="enable-background:new 0 0 512 512;" xml:space="preserve">
<style type="text/css">
	.st0{fill:#F6F6F6;}
</style>
<path class="st0" d="M64,64c0-17.7-14.3-32-32-32S0,46.3,0,64v336c0,44.2,35.8,80,80,80h400c17.7,0,32-14.3,32-32s-14.3-32-32-32H80
	c-8.8,0-16-7.2-16-16V64z M470.6,150.6c12.5-12.5,12.5-32.8,0-45.3s-32.8-12.5-45.3,0L320,210.7l-57.4-57.4
	c-12.5-12.5-32.8-12.5-45.3,0l-112,112c-12.5,12.5-12.5,32.8,0,45.3s32.8,12.5,45.3,0l89.4-89.3l57.4,57.4
	c12.5,12.5,32.8,12.5,45.3,0l128-128L470.6,150.6z"/>
</svg>
