<?xml version="1.0" encoding="utf-8"?>
<!-- Generator: Adobe Illustrator 27.6.1, SVG Export Plug-In . SVG Version: 6.00 Build 0)  -->
<svg version="1.1" id="Layer_1" xmlns="http://www.w3.org/2000/svg" xmlns:xlink="http://www.w3.org/1999/xlink" x="0px" y="0px"
	 viewBox="0 0 576 512" style="enable-background:new 0 0 576 512;" xml:space="preserve">
<style type="text/css">
	.st0{fill:#F6F6F6;}
</style>
<path class="st0" d="M64,64C28.7,64,0,92.7,0,128v256c0,35.3,28.7,64,64,64h448c35.3,0,64-28.7,64-64V128c0-35.3-28.7-64-64-64H64z
	 M128,384H64v-64C99.3,320,128,348.7,128,384z M64,192v-64h64C128,163.3,99.3,192,64,192z M448,384c0-35.3,28.7-64,64-64v64H448z
	 M512,192c-35.3,0-64-28.7-64-64h64V192z M288,160c53,0,96,43,96,96s-43,96-96,96s-96-43-96-96S235,160,288,160z"/>
</svg>
